<svg xmlns="http://www.w3.org/2000/svg" version="1.2" viewBox="0 0 512 125"><path fill="#33a142" fill-rule="evenodd" d="M62 110c-26.6 0-48-21.5-48-48 0-26.6 21.4-48 48-48 26.5 0 48 21.4 48 48 0 26.5-21.5 48-48 48zm31.4-43.7c.3-7.8-4.2-16.4-11.9-17.7-.8-.2-1.4-.4-1.4-.5.3-1.5 7.1-10.3 9.8-13.2-1.7-1.2-3.2-2.2-5.5-3.6-1.5-.9-2.9-1.6-3-1.6-.4 0-.6.9-1.6 5.7-.7 3.8-2.8 10.4-3.2 10.5-7.3-10.9-26.2-9.8-33.7.1-4.5 3.9-6.7 19-7.9 26.9-1 3.6-3.3 9.7-5 12.8 11 6.2 31.4 8.6 43 4.5-5.4-.5-9.7-5-9.7-10.6 0-5.8 4.8-10.6 10.6-10.6 5.9 0 10.6 4.8 10.6 10.6 0 1.8-.4 3.4-1.1 4.8v.1c4.6-2.5 10.4-11.8 10-18.2z"/><path fill="#f5f7e1" fill-rule="evenodd" d="M83.4 84.5v-.1c.7-1.4 1.1-3 1.1-4.8 0-5.8-4.7-10.6-10.6-10.6-5.8 0-10.6 4.8-10.6 10.6 0 5.6 4.3 10.1 9.7 10.6-11.6 4.1-32 1.7-43-4.5 1.7-3.1 4-9.2 5-12.8 1.2-7.9 3.4-23 7.9-26.9 7.5-9.9 26.4-11 33.7-.1.4-.1 2.5-6.7 3.2-10.5 1-4.8 1.2-5.7 1.6-5.7.1 0 1.5.7 3 1.6 2.3 1.4 3.8 2.4 5.5 3.6-2.7 2.9-9.5 11.7-9.8 13.2 0 .1.6.3 1.4.5 7.7 1.3 12.2 9.9 11.9 17.7.4 6.4-5.4 15.7-10 18.2z"/><path fill="#42332c" d="M131.4 86V36.8h15.5-3.2 2.5l13.4 29.6 13-29.6h14.5-3.2 3.2V86h-14.4V54.7l-12.6 28.9-13.2-27.8V86h-14.5zm61.1-18.7q.9-9.2 7-12.9 6.2-3.6 14.7-3.4h2.6q9.3.5 14.6 4.5 5.3 4 6 11.7.2 9.5-5.9 13.8-6.1 4.2-14.8 5H214q-11.2-.8-16.2-5.3t-5.3-13.4zm22.5-12q-6.8.2-7 8v10.3q.5 7.6 7.1 8 6.6-.6 6.5-8.2v-10q-.2-8-6.6-8.1zm45 1q2.6-3.3 7.8-4.3 15.9-1.2 15.8 10.5h-12.3q.2-5.3-7.3-5.1-4 .8-4 3.6v25.1h-16.7V52.2h15-3.2 4.9zM290.9 40v-2.9h17.8-3.2 3.2v10.2-2.9 2.9h-17.8 3.2-3.2V37.1zm0 46.1v-33h16.2-3.2 4.9v33h-17.9 3.3zm27.5-.1V36.8h15.5-3.2 3.2v40H358v9.3l-24.1-.1h-14.5zm47.5-46v-2.9h17.8-3.3 3.3v10.2-2.9 2.9h-17.8 3.2-3.2V37.1zm0 46.1v-33h16.2-3.3 5l-.1 33h-17.8 3.2zm42.9-29.9q5.5-4.8 12.9-5.5 17.8-1.3 18.3 11.7v1.5-1.5 3-1.5V86h-16.4 3.3-3.3V62.4q0-4.6-7.2-5.1-5.1-.4-7.6 3.7v25h-16.7V52.1h15.1-3.3 5zm55.1 12-.2 17.8H447V52.1l.1-15.3h16.6v20.8l14.2-16.1h8.7l-11.1 13.2 21 31.4h-18.1l-13.3-19.2z"/></svg>