<svg width="100%" height="100%" viewBox="0 0 64 64" fill="none" xmlns="http://www.w3.org/2000/svg"><path d="M46.13 9.09c-2.91-1.5-9.12-1.06-13.07.43-.57.21-.46 1.04.15 1.08 4.65.29 9.44 1.88 4.62 6.97-5.85 6.17 5.79 7.18 9.54 1.63 2.41-3.54 2.27-8.3-1.24-10.11z" fill="#73BF7C"/><path d="M55.58 20.33c-.66-1.77-4.81 1.74-6.75 1.74-1.77 0-3.89 4.25-10.86 3.27-4.47-.63-4.86-4.07-4.1-5.88.37-.88.34-1.12-.09-1.25-.69-.21-1.77-.22-2.48-.31-4.33-.56-8.34.16-5.9 5.15.31.63-.03 1.4-.64 1.76-2.58 1.52-9.89 5.27-15.33 8.61a2.12 2.12 0 00-.99 2.07c.45.37 1.93.92 6.46-.77 2.92-1.09 4.8 2.14 1.49 4.14-4.14 2.5-5.43 2.71-5.35 5.7 1 1.86 2.27 3.31 3.91 4.51.56.41 1.26.55 1.93.35 5.23-1.58 11.52-3.46 15.89-2.29 10.41 2.79 17.3 2.4 16.88-15.31-.01-.32-1.9-.7-4.36-1.65-1.65-.64-1.54-1.35-1.36-1.95.17-.53.66-1.17 2.1-.52 1.94.87 3.66 1.39 4.71 1.21 5.2-.91 5.26-7.45 4.84-8.58z" fill="#73BF7C"/></svg>