<svg width="100%" height="100%" viewBox="0 0 64 64" fill="none" xmlns="http://www.w3.org/2000/svg"><path d="M9 34.91c-.05 1.14-3.73 2.73-3.6 3.57.13.84 4.2.79 4.33 1.29.13.5-.68-6-.73-4.86z" fill="#A9A2F0"/><path d="M23.59 34.78c-1.99-7.91-3.11-12.76-4.31-14.73-1.05-1.73-2.36-4-5.1-1.65-6.71 5.78-5.17 15.47-5.17 17.07.17 2.95.85 5.43 1.95 7.48.25.31.54.3.82.12.37-.23 1.38-.87 1.38-.87a1.652 1.652 0 111.77 2.79s-.74.47-1.05.67c-.26.16-.44.42-.24.69 3.25 2.87 8.09 4.05 14.24 3.49 2.84-.24-1.14-2.55-4.29-15.06zm-8.56 2.27c-1.39 0-2.52-1.58-2.52-3.52 0-1.95 1.13-3.52 2.52-3.52 1.39 0 2.52 1.58 2.52 3.52-.01 1.95-1.13 3.52-2.52 3.52z" fill="#A9A2F0"/><path d="M53.81 46.34c-6.96-1.04-8.28-4.86-4.98-11.32 3.41-6.68 1.92-15.91-8.79-21.88-7.88-4.39-18.94-2.53-22.18.65-.56.55-.35 1.51.37 1.82 7.96 3.49 6.63 25.44 14.61 33.43 5.21 5.22 15.38 5.43 21.75-.24.91-.8.42-2.28-.78-2.46zm-11.75-19.7l-2.44 1.77c-.46.33-.65.93-.48 1.47l.93 2.87c.39 1.21-.99 2.22-2.02 1.47l-2.44-1.77c-.46-.34-1.09-.34-1.55 0l-2.44 1.77c-1.03.75-2.42-.26-2.02-1.47l.93-2.87a1.31 1.31 0 00-.48-1.47l-2.44-1.77c-1.03-.75-.5-2.38.77-2.38h3.01c.57 0 1.08-.37 1.25-.91l.93-2.86c.39-1.21 2.11-1.21 2.5 0l.93 2.86c.18.54.68.91 1.25.91h3.01c1.3 0 1.83 1.63.8 2.38z" fill="#A9A2F0"/></svg>