<svg width="100%" height="100%" viewBox="0 0 64 64" fill="none" xmlns="http://www.w3.org/2000/svg"><path d="M59.4 25.24c-1.28.78-3.15 1.58-4.63.79-.26-.14-.4-.43-.39-.73.02-1.2.59-2.54 4.83-4.47.57-.26.68-1.02.21-1.44-7.94-6.97-18.6 1.49-19.64 8.99-.08.59 3.42-.76 7.91 1.67 3.26 1.76 3.11 4.79 4.33 4.48 4.16-1.07 7.91-5.06 8.67-8.38.17-.74-.65-1.31-1.29-.91zM13.76 37.43c-.63-.05-1.2-.82-1.07-1.68.32-2.14 1.07-3.38 1.91-4.1.49-.41.11.26.97 1.07.71.66 1.66.81 1.2.79-.59-.04-1.18.68-1.41 2.14-.18 1.19-.61 1.86-1.6 1.78zM19.11 41.33c-.56 0-1.17-.56-1.25-1.41-.21-2.3.19-3.67.92-4.52.37-.43.12.04 1.14.75.57.39 1.47.6 1.03.68-.56.1-.83 1.07-.69 2.49.09.9-.09 2.02-1.15 2.01zM32.91 28.98c-1.58-.48-3.21-1-5.27-.02-.33.16-.71-.04-.82-.39-.51-1.63-2.07-2.66-4.25-1.6-.19.09-.5-.2-.52-.45-.08-.84-.99-1.23-1.94-1.34-1.57-.18-3.75 1.76-4.31 3.58-.57 1.89.65 3.16 2.19 2.73.35-.1.72.17.74.53.12 1.73 1.5 2.99 3.33 2.63.4-.08.76.21.74.62-.1 1.85.93 3.72 2.82 4.59.24.11.46-.02 1.24-.04.75-.01 2.06.23 2.24.08.21-.18-.16-1.98 2.58-6.04 2.17-3.21 4.42-3.47 3.33-4.04-.34-.17-1.71-.72-2.1-.84zM11.69 13.65c-3.06 2.41-3.99 6.68-1.57 9.49 1.88 2.18 6.26 2.29 8.66.34 1.94-1.58 2.81-4.65 1.39-6.56 1.15-1.2 3.12-1.02 4.61-.56.56.17 1.01-.47.67-.95-3.45-4.8-10.26-4.51-13.76-1.76z" fill="#D69E00"/><path d="M46.17 42.9c1.41 1.17.46 3.23-1.68 2.34a.697.697 0 00-.71.08c-.46.38-1.42 1.01-2.9 1.18a12.2 12.2 0 01-3.19-.08c-.86-.13-.56-1.05-2.43-2.85-1.97-1.89-3.29-1.85-3.26-2.38.05-1.14.1-2.48.71-4.02 3.11-6.89 8.95-7.71 14.4-4.8 1.81.96 2.09 2.55 2.11 3.38.01.28.18.55.46.61 2.06.49 1.03 2.95-1.3 2.62-.28-.04-.55.06-.69.3l-1.65 2.8c-.16.27-.11.62.13.82zM21.89 44.39c6.09-5.87 14.82 1.86 14.31 8.21-.06.69-.86 1.02-1.37.56-2.64-2.41-4.82-3.13-5.38-2.48-.54.63 1.06 2.75 2.98 4.87.43.48.16 1.25-.48 1.36-9.56 1.63-15.65-7.13-10.06-12.52z" fill="#D69E00"/></svg>