<svg width="100%" height="100%" viewBox="0 0 64 64" fill="none" xmlns="http://www.w3.org/2000/svg"><g clip-path="url(#clip0)" fill="#B2AC97"><path d="M32.12 38.81c-2.35-7.43.99-10.55 1.69-11.27 1.25-1.29.7-2.97-1.05-4.1-.9-.58-1.8-.57-2.44-.47-.35.05-.63-.23-.61-.58.08-1.3-.95-2.59-2.09-3.06-.34-.14-.47-.56-.22-.84.99-1.08 1.88-3.1-.13-4.57-1.29-.92-2.93-.15-3.87 1.1-.31.41-.86.52-1.34.34-1.52-.59-4.06-.64-5.45 2.36-2.12 4.58 1.93 9.49 6.71 9.31.52-.02.84.54.56.98-1.67 2.59-.63 5.84 1.75 7.01.44.21.44.85.03 1.1-1.32.79-2.97 2.48-2.97 5.97 0 2.81 3.09 6.51 8.05 5.15.33-.09.66.09.79.41 1.13 2.81 4.18 3.79 7 3.61 2.07-.13 4.78-2.05 5.31-3.29.21-.49-.13-.93-.65-.97-6.22-.56-9.73-3.93-11.07-8.19z"/><path d="M22.15 35.83c.43-.63.52-1.03.11-1.46-.75-.8-1.25-2.64-.76-4.17.15-.46-.07-.87-.55-.95-4.1-.62-5.01-4.65-5.61-3.96-4.64 5.26-8.27 12.91-7.13 19.49.29 1.07.99 2.93 1.35 3.68.13.28.5.35.73.16.73-.62 1.48-1.77 1.45-3.24-.02-.95.72-1.57 1.34-1.53.6.03 1.26.43 1.28 1.38.05 2.31-.9 3.25-2.28 4.56-.27.26-.28.75.59 1 2.23.64 5.02-.73 8.04-2.24 2.82-1.4.96-1.78.12-3.69-1.01-2.3-.89-5.76 1.32-9.03zM54.84 32.47c-.91.1-1.58-.37-1.68-1.27-.1-.91.62-1.26 1.53-1.36.52-.06 1.82-.05 2.99.03.4.03.75-.29.73-.69-.13-2.57-.73-5.72-1.96-7.5a.672.672 0 00-.52-.31c-2.21-.11-4.11 2.13-4.13 2.15-.32.44-.82.67-1.33.67-.34 0-.74-.05-.98-.33-.52-.58-.33-1.07.22-1.8.08-.11 1.43-1.89 3.63-2.85.46-.2.55-.81.17-1.14-1.69-1.45-4.78-3.41-7.41-4.06-.22-.05-.47-.04-.64.11-1.8 1.47-2.49 4.53-2.5 4.56-.16.78-.41 1.41-1.17 1.41-.11 0-.23-.01-.34-.03-.89-.19-.9-.9-.72-1.79.03-.13.46-2.11 1.64-4.06a.669.669 0 00-.49-1.01c-5.98-.74-9.6.79-10.75 1.28-1.65.71-.48 1.15-.52 2.21-.04 1.29-.82 1.82-.27 2.09.34.17 1.22 1.05 1.7 1.98.17.32 1.24-.23 2.89 1.01 1.44 1.08 1.51 2.95 1.88 2.81 2.21-.78 6.28-2.69 10.91.62 3.8 2.71 3.25 5.14 3.25 7.46 0 3.04-2.21 5.41-5.62 6.17-1.9.42-4.31-.17-5.87-2.12-2.69-3.37-.8-5.85.15-6.8 1.63-1.63 3.71-.26 2.28 1.4-2.76 3.19.28 5.65 2.95 5.18 5.12-.9 4.39-7.78.22-9.82-4.22-2.07-9.01.37-10.5 4.33-1.89 5.03-.93 12.67 9.41 13.7 8.42.84 12.56-5.77 13.84-11.45.09-.4-.21-.79-.63-.81-.77-.07-1.63-.05-2.36.03z"/></g><defs><clipPath id="clip0"><path fill="#fff" d="M8 13h50.4v38.27H8z"/></clipPath></defs></svg>