<svg width="100%" height="100%" viewBox="0 0 64 64" fill="none" xmlns="http://www.w3.org/2000/svg"><path d="M53.31 25.44c-1.59-.36-3.58-.4-5.28 2.03-.46.65-.36 1.55.18 2.13l.04.04c.65.7 1.77.79 2.45.12.45-.45.9-.58 1.54-.61 1.14-.04 2.29 1.41 2.21 2.97-.05 1.05-.41 1.99-1.44 2.57-.67.38-1.01 1.17-.82 1.92.27 1.07 1.47 1.66 2.45 1.16 2.36-1.2 3.25-3.52 3.13-5.98-.15-3.04-1.89-5.76-4.46-6.35z" fill="#CD87D8"/><path d="M44.47 28.71c.77-1.8 1.37-3.78 1.6-5.79.11-.95-.65-1.78-1.6-1.78H27.96c-.95 0-1.71.83-1.6 1.78.23 2 .82 3.98 1.6 5.79-3.72 2.25-6.21 6.7-6.21 11.29 0 7.06 5.09 12.34 15.06 12.34 9.41 0 13.87-5.72 13.87-12.78 0-5.08-2.49-8.6-6.21-10.85zM20.06 24.38c.81-.68.32-2-.73-2.01-9.89-.11-14.45 5.16-11.66 8.12 3.24 3.43 7.37-1.2 8.67-2.71.69-.8 2.33-2.23 3.72-3.4zM25.92 17.09c.83-.06 1.23-1.06.66-1.67C20 8.4 13.2 9.03 13.19 13.62c-.01 4.95 5.99 3.97 8.12 3.8 1.2-.1 3.14-.23 4.61-.33z" fill="#CD87D8"/></svg>