<svg width="100%" height="100%" viewBox="0 0 64 64" fill="none" xmlns="http://www.w3.org/2000/svg"><path d="M19.902 34.554c-2.027 3.064 0 10.213 4.056 13.277 2.01 2.043 13.18 3.064 16.22 0 3.042-3.064 4.056-10.213 2.028-13.277-2.027-3.063-20.276-3.063-22.304 0zM47.276 26.384c-1.623.817-1.352-3.744-1.014-6.128-1.014-2.042-4.056 0-4.056 6.128s5.07 8.17 7.097 8.17c2.028 0 7.097 0 9.125-8.17 1.622-6.536-5.407-10.893-9.125-12.255 0 3.745-.405 11.438-2.027 12.255zM13.82 20.256c3.04 0 3.04-6.127 4.054-9.19 3.042 1.02 4.056 10.212 3.042 13.276-1.014 3.064-3.042 8.17-9.125 8.17s-9.124-6.128-9.124-12.256c0-4.902 6.083-10.212 9.124-12.255-.338 4.085-.405 12.255 2.028 12.255z" fill="#F19387"/><path fill-rule="evenodd" clip-rule="evenodd" d="M8.71 39.549c1.859-.98 3.908-1.091 5.251-.898.286.041.54.203.7.445l6.084 9.191c.221.335.227.77.014 1.111-.213.341-.605.524-1.001.467-1.023-.147-2.623-.054-4.025.685-1.346.71-2.58 2.046-2.94 4.576-.078.558-.592.946-1.146.866a1.02 1.02 0 01-.86-1.155c.452-3.19 2.09-5.087 4.006-6.097 1.059-.558 2.18-.834 3.197-.933L16.64 45.77c-1.024-.132-2.582-.025-3.95.696-1.346.71-2.58 2.046-2.939 4.576-.079.558-.593.946-1.147.866a1.02 1.02 0 01-.86-1.155c.452-3.19 2.09-5.087 4.006-6.097 1.172-.618 2.42-.89 3.518-.959l-2.03-3.068c-1.008-.066-2.373.09-3.59.73-1.345.71-2.58 2.046-2.938 4.576-.08.559-.593.947-1.147.867a1.02 1.02 0 01-.86-1.156c.452-3.189 2.09-5.086 4.005-6.096zm41.171 1.08c1.008-.067 2.373.089 3.59.73 1.345.709 2.58 2.045 2.938 4.575.08.559.593.947 1.147.867.555-.08.94-.597.86-1.156-.452-3.189-2.09-5.086-4.005-6.096-1.86-.98-3.909-1.091-5.252-.898-.286.041-.54.203-.7.445l-6.084 9.191c-.221.335-.227.77-.014 1.111.213.341.605.524 1.001.467 1.023-.147 2.623-.054 4.025.685 1.346.71 2.58 2.046 2.939 4.576.08.558.593.946 1.147.866.554-.08.94-.597.86-1.155-.452-3.19-2.09-5.087-4.006-6.097-1.059-.558-2.18-.834-3.197-.933l1.349-2.038c1.024-.132 2.581-.025 3.95.696 1.345.71 2.58 2.046 2.939 4.576.079.558.592.946 1.147.866.554-.08.94-.597.86-1.155-.452-3.19-2.09-5.087-4.006-6.097-1.172-.618-2.42-.89-3.518-.959l2.03-3.068z" fill="#ED8F83"/><ellipse cx="28.013" cy="27.407" rx="3.042" ry="3.064" fill="#F19387"/><ellipse cx="36.123" cy="27.407" rx="3.042" ry="3.064" fill="#F19387"/></svg>