<svg width="100%" height="100%" viewBox="0 0 64 64" fill="none" xmlns="http://www.w3.org/2000/svg"><path d="M57.92 27.25c.84.22 1.02-.58.76-1.12-2.07-4.4-6.69-7.06-11-6.76-1.96.14-4.19.87-5.54 1.6-.77.41-.66.59.16.44 1.66-.32 4.26-.67 4.79.18.66 1.06.3 3.23.11 4.51-1.07 7.12-6.31 7.37-6.31 7.37-.5 6.01-2.04 7.69-3.76 9.07a.997.997 0 00-.09 1.5c1.18 1.15 2.48 2.89 3.09 4.57.3.81.76.81 1.31.21 1.65-1.78 2.9-4.49 2.82-7.65-.02-.64.61-.91 1.2-.68 1.22.49 3.03 1.77 3.76 3.12.44.82 1.27.59 1.54-.53.55-2.23.57-4.75-.71-7.25-.3-.59 0-1.19.87-1.1 1.87.19 3.73 1.1 5.6 2.23.52.32 1.19.35 1.18-.67-.01-3.61-1.69-6.1-4.38-7.68-.67-.39-.69-1.07.33-1.44 1.11-.41 2.63-.36 4.27.08z" fill="#EE826E"/><path d="M44.88 23.69c-.55-.66-5.47 1.12-9.44 1.72-3.84.57-8.96-.29-11.02-5.41-.41-1.01 1.01-2.62.33-2.45-4.75 1.15-6.5 7.02-13.1 12.36-5.27 4.26-5.23 10.16-3.87 14.56.11.34.47.53.82.45.96-.23 2.59-.89 2.59-3 0-.91.56-1.72 1.47-1.72.91 0 1.31.74 1.31 1.66 0 3.12-1.72 4.12-3.56 4.98-.46.22-.56.84-.16 1.16 1.13.9 2.53 1.44 4.16 1.44 10.11-.02.94-6.18 13.66-6.35 6.86-.09 9.87-2.84 10.56-8.77.19-1.6-3.41-1.64-4.08-3.57-.3-.88.56-1.61 1.6-1.23 1.07.4 3.04 2.28 6.22 1.19 2.54-.89 2.89-6.58 2.51-7.02z" fill="#EE826E"/><path d="M31.77 16.7a8.65 8.65 0 01-.84-1.7.509.509 0 00-.82-.2c-.9.82-2.41 2.3-3.13 3.34-.26.38-.77 1.15-.53 1.54 1.42 2.27 3.78 3.84 6.58 3.78.33-.01 1.12-.43 1.34-.68.28-.32 1.28-1.22 1.63-1.57.25-.25.16-.66-.16-.82-1.72-.87-3.16-2.25-4.07-3.69zM39.64 13.41c-.16-.53-.24-1.05-.25-1.55a.653.653 0 00-.75-.63c-1.62.27-3.97.95-5.45 1.68-.32.59-.09 1.69.6 2.78 1 1.59 3.04 3.19 5.22 3.08.09 0 .18-.04.26-.09.44-.28 1.66-.76 2.13-1.02.37-.2.48-.69.19-1-.89-.94-1.59-2.07-1.95-3.25zM50.19 14.05c-2.4-1.62-5.15-2.55-7.94-2.81-.16-.02-.55-.06-.62.29-.07.32-.06.69.07 1.12.42 1.38 1.75 2.78 3.05 3.32.19.08.46-.03.59-.07 1.39-.34 2.87-.53 4.43-.52.71 0 1.01-.94.42-1.33z" fill="#EE826E"/></svg>