<svg width="100%" height="100%" viewBox="0 0 64 64" fill="none" xmlns="http://www.w3.org/2000/svg"><path d="M57.47 23.3c-3.33-3.62-7.03-3.66-8.37-3.54a.415.415 0 01-.45-.48c.11-.75.39-2.15 1.1-3.35.45-.77.15-1.74-.65-2.13-7.53-3.73-16.65-4.7-23.83-3.52-2.3.38-4.27 1.81-4.73 3.26-.28.89-.01 1.65.84 2.34 1.12.9 9.15 9.51 8.06 16.63-.26 1.71-1.15 3.91-3.73 5.62-.61.41-.99 1.11-.92 1.84.4 4.14-.79 7.49-3.41 9.65-.22.18-.23.53.01.7 2.95 2.06 5.84 1.03 8.87-.06 2.01-.72 5.17-.57 7.08 1.45.58.61 1.58.56 2.12-.09 2.41-2.9 1.01-6.03-.07-7.67-.22-.34.11-.76.49-.62 1.29.46 3.38 1.1 5.82 1.46 2.59.38 5.12.37 7.54 2.26.75.59 1.89.25 2.18-.65 2.59-7.91-1.11-9.88-2.81-10.37a.415.415 0 01-.17-.72c1.07-.92 3.4-2.57 5.93-2.04.88.18 1.69-.39 1.76-1.29.24-3.14-.53-6.35-2.66-8.68zm-16.05.01c-1.45 2.12-3.97 3.13-5.98 3.13-.24 0-.46-.01-.68-.04-2.2-.28-3.93-2.5-5.16-6.6-.28-.95-.17-1.95.31-2.81.48-.87 1.27-1.49 2.23-1.75.46-.13.94-.28 1.43-.43 2.73-.85 6.46-2.01 7.89 1.17 1.9 3.5.79 6.1-.04 7.33z" fill="#ACC100"/><path d="M32.53 21.01c.39 1.78 1.41 2.58 2.61 2.74 1.53.2 3.17-.46 4.19-1.96.91-1.34.99-3.76-.24-4.99-1.23-1.23-4.17.02-6.06.78-1.1.44-.89 1.65-.5 3.43zM21.64 20.33c-1.61-1.81-2.04-2.29-3.4-1.64-1.84.87-3.87 2.24-5.14 4.26-1.62 2.55-2.1 6.4-2.5 9.26-.32 2.29-4.77 3-5.63 5.97-.07.25.09 1.45.57 1.38 1.57-.24 2.26-.84 2.85-1.5.59-.66 1.49-1.81 2.31-1.41.93.46.87 1.14.5 1.98-.62 1.43-2.39 2.53-4.81 3.09-.48.11-.63.96-.43 1.41 2.15 4.8 5.19 5.26 9.79 5.31 3.99.04 7.92-2.73 6.06-9.34-.33-1.16-.63-2.47 1.2-3.01 2.25-.66 3.71-2.41 3.67-4.41-.11-5.24-2.92-8.96-5.04-11.35z" fill="#ACC100"/></svg>