<svg width="100%" height="100%" viewBox="0 0 64 64" fill="none" xmlns="http://www.w3.org/2000/svg"><path d="M43.83 23.75c.55.34 1.18-.31.8-.83-5.19-6.97-13.13-9.87-17.01-10.51-2.38-.39-4.36 3.29-5.15 5.04-.18.4.12.84.56.82 2.86-.14 11.88-.06 20.8 5.48z" fill="#5FAFC4"/><path d="M56.69 34.59s3.34-2.95 3.69-7.55c.11-1.45-1.45-2.41-2.67-1.63-2.16 1.39-4.01 3.06-6.09 4.32-1.29.77-2.93.65-4.09-.31-14.94-12.35-37.48-10.58-43.03 3.6-.13.32.01.7.31.88l6.82 2.93c.58.35.4 1.24-.28 1.32l-4.99.18c-.56.07-.88.78-.47 1.17 10.11 9.37 28.86 11.02 41.55.42 1.17-.97 2.82-1.12 4.12-.33 2.08 1.25 3.99 3.15 6.16 4.54 1.22.79 2.84-.18 2.67-1.62-.6-5.23-3.7-7.92-3.7-7.92zm-41.83.3c-1.45 0-2.63-1.18-2.63-2.63s1.18-2.63 2.63-2.63 2.63 1.18 2.63 2.63-1.18 2.63-2.63 2.63z" fill="#5FAFC4"/></svg>